<?xml version="1.0" encoding="UTF-8"?>
<svg
  xmlns="http://www.w3.org/2000/svg"
  viewBox="7.5 1.5 25 25"
  width="400"
  height="400"
  role="img"
  aria-label="Longevity Clinic — Evolved Bloom icon"
>
  <title>Longevity Clinic — Evolved Bloom (Icon)</title>
  <desc>Logo mark Variación 03: pétalos con profundidad bioluminiscente</desc>

  <defs>
    <radialGradient id="centerGlow" gradientUnits="userSpaceOnUse" cx="20" cy="14" r="10">
      <stop offset="0%" stop-color="#C9A84C" stop-opacity="0.12"/>
      <stop offset="100%" stop-color="#C9A84C" stop-opacity="0"/>
    </radialGradient>
  </defs>

  <!-- Subtle gold glow behind petals -->
  <circle cx="20" cy="14" r="10" fill="url(#centerGlow)"/>

  <!-- Mark -->
  <g transform="translate(20,14) scale(0.65) translate(-20,-20)">
    <circle cx="20" cy="20" r="18" fill="none" stroke="#C9A84C" stroke-width="0.4" opacity="0.14"/>

    <g transform="rotate(0,20,20)">
      <path d="M 20,20 C 23.5,17 25,11 20,5.5 C 15,11 16.5,17 20,20 Z" fill="#C9A84C" opacity="1.0"/>
      <path d="M 19.4,17 Q 20,12 20.6,17" fill="none" stroke="rgba(8,6,2,0.45)" stroke-width="0.9" stroke-linecap="round"/>
    </g>
    <g transform="rotate(60,20,20)">
      <path d="M 20,20 C 23.5,17 25,11 20,5.5 C 15,11 16.5,17 20,20 Z" fill="#C9A84C" opacity="0.8"/>
      <path d="M 19.4,17 Q 20,12 20.6,17" fill="none" stroke="rgba(8,6,2,0.35)" stroke-width="0.9" stroke-linecap="round"/>
    </g>
    <g transform="rotate(120,20,20)">
      <path d="M 20,20 C 23.5,17 25,11 20,5.5 C 15,11 16.5,17 20,20 Z" fill="#C9A84C" opacity="0.58"/>
      <path d="M 19.4,17 Q 20,12 20.6,17" fill="none" stroke="rgba(8,6,2,0.25)" stroke-width="0.9" stroke-linecap="round"/>
    </g>
    <g transform="rotate(180,20,20)">
      <path d="M 20,20 C 23.5,17 25,11 20,5.5 C 15,11 16.5,17 20,20 Z" fill="#C9A84C" opacity="0.4"/>
      <path d="M 19.4,17 Q 20,12 20.6,17" fill="none" stroke="rgba(8,6,2,0.18)" stroke-width="0.9" stroke-linecap="round"/>
    </g>
    <g transform="rotate(240,20,20)">
      <path d="M 20,20 C 23.5,17 25,11 20,5.5 C 15,11 16.5,17 20,20 Z" fill="#C9A84C" opacity="0.58"/>
      <path d="M 19.4,17 Q 20,12 20.6,17" fill="none" stroke="rgba(8,6,2,0.25)" stroke-width="0.9" stroke-linecap="round"/>
    </g>
    <g transform="rotate(300,20,20)">
      <path d="M 20,20 C 23.5,17 25,11 20,5.5 C 15,11 16.5,17 20,20 Z" fill="#C9A84C" opacity="0.8"/>
      <path d="M 19.4,17 Q 20,12 20.6,17" fill="none" stroke="rgba(8,6,2,0.35)" stroke-width="0.9" stroke-linecap="round"/>
    </g>

    <circle cx="20" cy="20" r="3" fill="#090910" stroke="#C9A84C" stroke-width="1.1"/>
    <circle cx="20" cy="20" r="1.3" fill="#C9A84C"/>
  </g>

</svg>
