<svg xmlns="http://www.w3.org/2000/svg" viewBox="7.5 1.5 25 25" width="32" height="32">
  <rect width="40" height="40" fill="#050e1a" rx="6"/>
  <circle cx="20" cy="14" r="10" fill="none"/>
  <g transform="translate(20,14) scale(0.65) translate(-20,-20)">
    <g transform="rotate(0,20,20)">
      <path d="M 20,20 C 23.5,17 25,11 20,5.5 C 15,11 16.5,17 20,20 Z" fill="#C9A84C"/>
    </g>
    <g transform="rotate(60,20,20)">
      <path d="M 20,20 C 23.5,17 25,11 20,5.5 C 15,11 16.5,17 20,20 Z" fill="#C9A84C" opacity="0.8"/>
    </g>
    <g transform="rotate(120,20,20)">
      <path d="M 20,20 C 23.5,17 25,11 20,5.5 C 15,11 16.5,17 20,20 Z" fill="#C9A84C" opacity="0.58"/>
    </g>
    <g transform="rotate(180,20,20)">
      <path d="M 20,20 C 23.5,17 25,11 20,5.5 C 15,11 16.5,17 20,20 Z" fill="#C9A84C" opacity="0.4"/>
    </g>
    <g transform="rotate(240,20,20)">
      <path d="M 20,20 C 23.5,17 25,11 20,5.5 C 15,11 16.5,17 20,20 Z" fill="#C9A84C" opacity="0.58"/>
    </g>
    <g transform="rotate(300,20,20)">
      <path d="M 20,20 C 23.5,17 25,11 20,5.5 C 15,11 16.5,17 20,20 Z" fill="#C9A84C" opacity="0.8"/>
    </g>
    <circle cx="20" cy="20" r="3" fill="#050e1a" stroke="#C9A84C" stroke-width="1.1"/>
    <circle cx="20" cy="20" r="1.3" fill="#C9A84C"/>
  </g>
</svg>
